<svg xmlns="http://www.w3.org/2000/svg" version="1.1" xmlns:xlink="http://www.w3.org/1999/xlink" xmlns:svgjs="http://svgjs.dev/svgjs" width="1440" height="560" preserveAspectRatio="none" viewBox="0 0 1440 560"><g mask="url(&quot;#SvgjsMask3429&quot;)" fill="none"><rect width="1440" height="560" x="0" y="0" fill="rgba(167, 209, 230, 0.22)"></rect><use xlink:href="#SvgjsG3438" transform="translate(0, 0)" fill="rgba(155, 196, 217, 0.23)"></use><use xlink:href="#SvgjsG3438" transform="translate(966, 0)" fill="rgba(155, 196, 217, 0.23)"></use></g><defs><mask id="SvgjsMask3429"><rect width="1440" height="560" fill="#ffffff"></rect></mask><g id="SvgjsG3434"><path d="M2.67 8.96C3.96 5.92 11.06 1 11.06 1s1.38 8.52 0.09 11.56c-0.88 2.07-3.25 3.8-6.1 2.59-2.85-1.21-3.25-4.12-2.38-6.19z" fill-rule="evenodd"></path></g><g id="SvgjsG3433"><path d="M11.57 9.78a46.75 46.75 0 0 1-0.32-0.58c-0.09-0.16-0.18-0.33-0.26-0.49-0.54-0.98-1.14-1.91-2.05-2.4A2.81 2.81 0 0 0 8.71 6.2c-0.08-0.03-0.16-0.06-0.24-0.08-0.98-0.31-2.07-0.1-3.15 0.19l0.06 0.11c0.07 0.12 0.13 0.24 0.19 0.35C6.65 6.49 7.66 6.31 8.51 6.67c0.86 0.36 1.42 1.21 1.97 2.18a35.1 35.1 0 0 1 0.33 0.59c0.09 0.16 0.17 0.32 0.26 0.48C11.66 10.99 12.31 12 13.35 12.44c0.4 0.17 0.83 0.24 1.26 0.24l0.22-0.51c-0.45 0.02-0.88-0.03-1.28-0.2-0.86-0.36-1.43-1.22-1.98-2.19z"></path><path d="M11.49 8.93c0.02 0.03 0.04 0.07 0.05 0.1 0.07 0.12 0.13 0.24 0.2 0.36 0.39-0.1 0.77-0.19 1.14-0.24l-0.54 1.26c0.11 0.17 0.23 0.33 0.35 0.48L13.45 9.1c0.35-0.01 0.68 0.02 1 0.11l-0.99 2.34c0.07 0.04 0.14 0.08 0.21 0.11 0.08 0.04 0.17 0.06 0.26 0.08L14.92 9.41c0.3 0.17 0.56 0.39 0.8 0.66L15.94 9.56C15.63 9.25 15.29 8.99 14.89 8.82c-1.04-0.44-2.23-0.21-3.4 0.11z m-7.1-1.84c-0.02-0.04-0.04-0.08-0.06-0.11-0.06-0.12-0.13-0.23-0.19-0.35-1.07 0.28-2.08 0.46-2.94 0.1C0.81 6.57 0.48 6.29 0.19 5.93l-0.22 0.52C0.27 6.77 0.6 7.03 1 7.2c1.03 0.44 2.22 0.21 3.39-0.1z"></path><path d="M1.1 6.3c0.07 0.04 0.15 0.08 0.23 0.12 0.08 0.03 0.16 0.06 0.24 0.08L2.57 4.16c0.29 0.16 0.55 0.38 0.77 0.64-0.01 0.01-0.02 0.02-0.02 0.03l-0.74 1.76a5.82 5.82 0 0 0 0.59-0.08L3.7 5.25c0.33 0.47 0.63 1.01 0.93 1.57C5.29 8.05 5.98 9.31 7.17 9.82c1.03 0.44 2.22 0.21 3.39-0.1l-0.07-0.12c-0.06-0.12-0.13-0.23-0.18-0.34-0.38 0.1-0.75 0.19-1.12 0.24L9.72 8.26A5.82 5.82 0 0 0 9.37 7.78l-0.74 1.74c0 0.01 0 0.02-0.01 0.03-0.35 0.01-0.68-0.02-1-0.11L8.61 7.1a1.97 1.97 0 0 0-0.24-0.12c-0.08-0.03-0.15-0.06-0.23-0.08l-0.99 2.34c-0.29-0.16-0.55-0.38-0.78-0.64 0.01-0.01 0.01-0.02 0.02-0.03L7.13 6.81a5.63 5.63 0 0 0-0.59 0.08l-0.53 1.26c-0.33-0.47-0.63-1.01-0.93-1.57C4.41 5.35 3.73 4.09 2.54 3.58c-0.4-0.17-0.81-0.24-1.25-0.25l-0.21 0.5c0.35-0.01 0.7 0.03 1.02 0.13L1.1 6.3z"></path></g><g id="SvgjsG3435"><path d="M2.71 6.45L0.4 5.47 0.92 4.24l2.31 0.98-0.52 1.23zM5.34 3.15L4.4 0.83l1.23-0.5 0.94 2.33-1.23 0.49z m-2.66 6.28l0.49 1.22-2.32 0.94-0.5-1.22 2.33-0.94z m8.07-6.23l-1.23-0.52L10.5 0.37l1.23 0.52-0.98 2.31z m-5.51 9.56l1.23 0.52-0.98 2.31-1.23-0.52 0.98-2.31zM13.34 6.55l-0.52-1.24 2.34-0.93 0.5 1.23-2.32 0.94z m-2.66 6.25l0.93 2.34-1.23 0.5-0.93-2.32 1.23-0.52z m4.94-2.32l-0.52 1.23-2.31-0.98L13.31 9.5l2.31 0.98z"></path><path d="M4.05 6.31a4.18 4.18 0 1 0 7.7 3.27 4.18 4.18 0 1 0-7.7-3.27"></path></g><g id="SvgjsG3431"><path d="M9.63 4.34c-1.02-0.43-1.5-1.61-1.07-2.62C8.99 0.7 10.17 0.23 11.2 0.67c1.02 0.43 1.5 1.61 1.07 2.62-0.43 1.02-1.61 1.49-2.64 1.05zM11.96 14.32l0.7-5.71C12.93 6.33 11.21 5.68 11.21 5.68L7.58 4.14s-1.67-0.79-3.12 1L0.85 9.6c-0.34 0.42-0.23 0.89 0.13 1.18 0.36 0.29 0.88 0.27 1.15-0.06l3.52-4.36 0.69 0.3L0.72 13.6 9.17 17.19 10.26 8.32l0.69 0.29-0.69 5.56c-0.05 0.43 0.28 0.82 0.75 0.87 0.47 0.06 0.88-0.19 0.95-0.72z m-2.91-0.97c-0.64 1.51-2.39 2.22-3.91 1.57-1.51-0.64-2.22-2.39-1.57-3.9 0.64-1.51 2.39-2.22 3.9-1.58 1.51 0.64 2.22 2.39 1.58 3.91z"></path><path d="M7.18 11.77a0.71 0.71 0 0 1 0.06-1.01 0.72 0.72 0 0 1 1.01 0.06 0.72 0.72 0 0 1-0.06 1.01 0.71 0.71 0 0 1-1.01-0.06z m0.22 1.17a361.54 361.54 0 0 1-0.91 0.82c-0.37 0.33-0.93 0.29-1.26-0.08-0.11-0.12-0.17-0.26-0.21-0.41-0.06-0.22 0.04-0.7 0.04-0.69-0.18 0.04-0.62 0.11-0.81 0.15a0.32 0.32 0 0 1-0.38-0.24 0.32 0.32 0 0 1 0.24-0.38 133.4 133.4 0 0 1 1.02-0.21 0.42 0.42 0 0 1 0.5 0.33l0.03 0.6 0.73-0.62-0.3-0.25a0.31 0.31 0 0 1-0.11-0.21l-0.07-0.79a0.31 0.31 0 1 1 0.62-0.04L6.58 11.57c0.16 0.13 0.81 0.67 0.82 0.66 0.03 0.03 0.06 0.07 0.07 0.11a0.46 0.46 0 0 1-0.07 0.6z"></path></g><g id="SvgjsG3437"><path d="M5.4 14.13l7.74-3.13c2.41-0.97 3.42-3.45 2.53-5.63A4.27 4.27 0 0 0 10.12 3.01a4.26 4.26 0 0 0-5.55-2.37C2.38 1.53 1.3 3.98 2.28 6.38L5.4 14.13z"></path></g><g id="SvgjsG3430"><path d="M2.23 5.44a2.74 2.74 0 0 1 0.07-1.31 0.65 0.65 0 0 1-0.15-0.04 0.64 0.64 0 0 1 0.13-1.22l2.19-0.46c0.45-0.07 0.92-0.02 1.37 0.15l4.19 1.8 3.28 0.81L13.33 5.12a0.6 0.6 0 0 1 1.11 0.47c-0.02 0.05-0.05 0.1-0.08 0.14l0.26 0.16c0.3 0.2 0.43 0.6 0.28 0.95-0.01 0.02-0.02 0.04-0.03 0.06l0.71 0.88a0.39 0.39 0 0 1-0.01 0.56l-0.44 0.42a0.78 0.78 0 0 1-0.67 0.11l-2.2-0.64L9.44 9.63l0.29 2.32 0.57 0.63a0.47 0.47 0 0 1-0.58 0.68l-1.36-0.57c-0.35-0.15-0.57-0.47-0.6-0.83l-0.28-2.61-2.63-1.11 0.32 1.82 0.55 0.61a0.46 0.46 0 0 1 0.05 0.46 0.46 0.46 0 0 1-0.6 0.25l-1.37-0.58a1 1 0 0 1-0.6-0.78L2.78 7.34l-1.27 0.48-0.31 0.55 0.22 0.32c0.04 0.05 0.07 0.1 0.08 0.16a0.47 0.47 0 0 1-0.63 0.56L0.27 9.16A0.65 0.65 0 0 1-0.04 8.75l-0.19-1.51a0.99 0.99 0 0 1 0.57-0.98l1.89-0.83z" fill-rule="evenodd"></path></g><g id="SvgjsG3432"><path d="M15.95 6.27L14.65 4.92c-0.54-0.52 0.26-0.75-0.4-1.51-0.29-0.33-1.55-1.22-1.55-1.22-0.28-0.25-1.36-0.33-1.63 0.32-0.27 0.64-0.45 0.63-0.45 0.63-1.29 1.16-0.61 0.69-1.54 1.98-0.04 0.07-0.17 0.25-0.52 0.54C7.33 6.7 4.96 7.48 3.13 7.7c-2.15 0.27-3.24 2.92-3.24 2.92-1.23-0.62-0.39-2.51-0.39-2.52-1.91 1.95 0.38 3.68 0.37 3.68 0.35 0.88 1.63 1.23 1.64 1.23 0.48 0.14 0.5 0.24 0.5 0.24s-0.05 0.27 0.69 0.62c0.74 0.35 1.45 0.55 1.7 0.85 0.26 0.29 0.94 0.62 0.94 0.62 0.45 0.35 0.64-0.24 0.64-0.24-0.01-0.73-0.68-0.95-0.67-0.95l-1.24-0.59c2.01 0.19 2.16-0.98 2.16-0.98 0.1-0.66-0.42-0.99-0.8-1.17-0.06-0.03 0.03-0.08 0.03-0.08 1.22 0.15 2.5-0.15 2.51-0.15-0.26 0.53-0.1 1.58-0.02 2.06 0.08 0.48-0.17 2.19-0.17 2.18 0.16 0.45 0.15 0.77 0.15 0.77 0.18 0.26 1.02 0.59 1.02 0.58 0.23 0.06 0.31 0.01 0.31 0.02l0.26-0.51c0.11-0.65-0.56-0.93-0.56-0.93l0.57-3.31c0.13-0.52 0.73-0.96 0.73-0.96 0.95-1.11 0.81-2.73 0.81-2.73 0-0.22 0.32-0.09 0.33-0.09s0.22-0.01 0.74 0.03c0.52 0.03 0.52-0.64 0.52-0.63l0.1-0.91c0.08-0.41 0.65 0.34 0.66 0.34 0.61 0.8 1.54 0.4 1.76 0.34 0.22-0.07 0.23-0.25 0.71-0.43 0.49-0.17 0.06-0.73 0.06-0.73" fill-rule="evenodd"></path></g><g id="SvgjsG3436"><path d="M6.8 4.53L11.13 0.64l0.22 5.82 4.76 2.94-5.28 2.21-1.4 5.7L5.94 12.86 0.32 13.45l3.14-4.97L1.37 3.14z"></path></g><g id="SvgjsG3438"><use xlink:href="#SvgjsG3430" transform="translate(0, 0) scale(2.3)" fill="rgba(155, 196, 217, 0.23)"></use><use xlink:href="#SvgjsG3431" transform="translate(0, 96.6) scale(2.3)" fill="rgba(155, 196, 217, 0.23)"></use><use xlink:href="#SvgjsG3432" transform="translate(0, 193.2) scale(2.3)" fill="rgba(155, 196, 217, 0.23)"></use><use xlink:href="#SvgjsG3433" transform="translate(0, 289.79999999999995) scale(2.3)" fill="rgba(155, 196, 217, 0.23)"></use><use xlink:href="#SvgjsG3434" transform="translate(0, 386.4) scale(2.3)" fill="rgba(155, 196, 217, 0.23)"></use><use xlink:href="#SvgjsG3432" transform="translate(0, 483) scale(2.3)" fill="rgba(155, 196, 217, 0.23)"></use><use xlink:href="#SvgjsG3435" transform="translate(96.6, 0) scale(2.3)" fill="rgba(155, 196, 217, 0.23)"></use><use xlink:href="#SvgjsG3436" transform="translate(96.6, 96.6) scale(2.3)" fill="rgba(155, 196, 217, 0.23)"></use><use xlink:href="#SvgjsG3431" transform="translate(96.6, 193.2) scale(2.3)" fill="rgba(155, 196, 217, 0.23)"></use><use xlink:href="#SvgjsG3430" transform="translate(96.6, 289.79999999999995) scale(2.3)" fill="rgba(155, 196, 217, 0.23)"></use><use xlink:href="#SvgjsG3435" transform="translate(96.6, 386.4) scale(2.3)" fill="rgba(155, 196, 217, 0.23)"></use><use xlink:href="#SvgjsG3433" transform="translate(96.6, 483) scale(2.3)" fill="rgba(155, 196, 217, 0.23)"></use><use xlink:href="#SvgjsG3432" transform="translate(193.2, 0) scale(2.3)" fill="rgba(155, 196, 217, 0.23)"></use><use xlink:href="#SvgjsG3431" transform="translate(193.2, 96.6) scale(2.3)" fill="rgba(155, 196, 217, 0.23)"></use><use xlink:href="#SvgjsG3430" transform="translate(193.2, 193.2) scale(2.3)" fill="rgba(155, 196, 217, 0.23)"></use><use xlink:href="#SvgjsG3435" transform="translate(193.2, 289.79999999999995) scale(2.3)" fill="rgba(155, 196, 217, 0.23)"></use><use xlink:href="#SvgjsG3430" transform="translate(193.2, 386.4) scale(2.3)" fill="rgba(155, 196, 217, 0.23)"></use><use xlink:href="#SvgjsG3430" transform="translate(193.2, 483) scale(2.3)" fill="rgba(155, 196, 217, 0.23)"></use><use xlink:href="#SvgjsG3436" transform="translate(289.79999999999995, 0) scale(2.3)" fill="rgba(155, 196, 217, 0.23)"></use><use xlink:href="#SvgjsG3433" transform="translate(289.79999999999995, 96.6) scale(2.3)" fill="rgba(155, 196, 217, 0.23)"></use><use xlink:href="#SvgjsG3432" transform="translate(289.79999999999995, 193.2) scale(2.3)" fill="rgba(155, 196, 217, 0.23)"></use><use xlink:href="#SvgjsG3433" transform="translate(289.79999999999995, 289.79999999999995) scale(2.3)" fill="rgba(155, 196, 217, 0.23)"></use><use xlink:href="#SvgjsG3430" transform="translate(289.79999999999995, 386.4) scale(2.3)" fill="rgba(155, 196, 217, 0.23)"></use><use xlink:href="#SvgjsG3430" transform="translate(289.79999999999995, 483) scale(2.3)" fill="rgba(155, 196, 217, 0.23)"></use><use xlink:href="#SvgjsG3432" transform="translate(386.4, 0) scale(2.3)" fill="rgba(155, 196, 217, 0.23)"></use><use xlink:href="#SvgjsG3437" transform="translate(386.4, 96.6) scale(2.3)" fill="rgba(155, 196, 217, 0.23)"></use><use xlink:href="#SvgjsG3437" transform="translate(386.4, 193.2) scale(2.3)" fill="rgba(155, 196, 217, 0.23)"></use><use xlink:href="#SvgjsG3430" transform="translate(386.4, 289.79999999999995) scale(2.3)" fill="rgba(155, 196, 217, 0.23)"></use><use xlink:href="#SvgjsG3432" transform="translate(386.4, 386.4) scale(2.3)" fill="rgba(155, 196, 217, 0.23)"></use><use xlink:href="#SvgjsG3436" transform="translate(386.4, 483) scale(2.3)" fill="rgba(155, 196, 217, 0.23)"></use><use xlink:href="#SvgjsG3434" transform="translate(483, 0) scale(2.3)" fill="rgba(155, 196, 217, 0.23)"></use><use xlink:href="#SvgjsG3435" transform="translate(483, 96.6) scale(2.3)" fill="rgba(155, 196, 217, 0.23)"></use><use xlink:href="#SvgjsG3432" transform="translate(483, 193.2) scale(2.3)" fill="rgba(155, 196, 217, 0.23)"></use><use xlink:href="#SvgjsG3433" transform="translate(483, 289.79999999999995) scale(2.3)" fill="rgba(155, 196, 217, 0.23)"></use><use xlink:href="#SvgjsG3436" transform="translate(483, 386.4) scale(2.3)" fill="rgba(155, 196, 217, 0.23)"></use><use xlink:href="#SvgjsG3435" transform="translate(483, 483) scale(2.3)" fill="rgba(155, 196, 217, 0.23)"></use><use xlink:href="#SvgjsG3431" transform="translate(579.5999999999999, 0) scale(2.3)" fill="rgba(155, 196, 217, 0.23)"></use><use xlink:href="#SvgjsG3437" transform="translate(579.5999999999999, 96.6) scale(2.3)" fill="rgba(155, 196, 217, 0.23)"></use><use xlink:href="#SvgjsG3436" transform="translate(579.5999999999999, 193.2) scale(2.3)" fill="rgba(155, 196, 217, 0.23)"></use><use xlink:href="#SvgjsG3435" transform="translate(579.5999999999999, 289.79999999999995) scale(2.3)" fill="rgba(155, 196, 217, 0.23)"></use><use xlink:href="#SvgjsG3432" transform="translate(579.5999999999999, 386.4) scale(2.3)" fill="rgba(155, 196, 217, 0.23)"></use><use xlink:href="#SvgjsG3432" transform="translate(579.5999999999999, 483) scale(2.3)" fill="rgba(155, 196, 217, 0.23)"></use><use xlink:href="#SvgjsG3433" transform="translate(676.1999999999999, 0) scale(2.3)" fill="rgba(155, 196, 217, 0.23)"></use><use xlink:href="#SvgjsG3432" transform="translate(676.1999999999999, 96.6) scale(2.3)" fill="rgba(155, 196, 217, 0.23)"></use><use xlink:href="#SvgjsG3434" transform="translate(676.1999999999999, 193.2) scale(2.3)" fill="rgba(155, 196, 217, 0.23)"></use><use xlink:href="#SvgjsG3430" transform="translate(676.1999999999999, 289.79999999999995) scale(2.3)" fill="rgba(155, 196, 217, 0.23)"></use><use xlink:href="#SvgjsG3434" transform="translate(676.1999999999999, 386.4) scale(2.3)" fill="rgba(155, 196, 217, 0.23)"></use><use xlink:href="#SvgjsG3436" transform="translate(676.1999999999999, 483) scale(2.3)" fill="rgba(155, 196, 217, 0.23)"></use><use xlink:href="#SvgjsG3433" transform="translate(772.8, 0) scale(2.3)" fill="rgba(155, 196, 217, 0.23)"></use><use xlink:href="#SvgjsG3430" transform="translate(772.8, 96.6) scale(2.3)" fill="rgba(155, 196, 217, 0.23)"></use><use xlink:href="#SvgjsG3436" transform="translate(772.8, 193.2) scale(2.3)" fill="rgba(155, 196, 217, 0.23)"></use><use xlink:href="#SvgjsG3430" transform="translate(772.8, 289.79999999999995) scale(2.3)" fill="rgba(155, 196, 217, 0.23)"></use><use xlink:href="#SvgjsG3436" transform="translate(772.8, 386.4) scale(2.3)" fill="rgba(155, 196, 217, 0.23)"></use><use xlink:href="#SvgjsG3436" transform="translate(772.8, 483) scale(2.3)" fill="rgba(155, 196, 217, 0.23)"></use><use xlink:href="#SvgjsG3437" transform="translate(869.4, 0) scale(2.3)" fill="rgba(155, 196, 217, 0.23)"></use><use xlink:href="#SvgjsG3431" transform="translate(869.4, 96.6) scale(2.3)" fill="rgba(155, 196, 217, 0.23)"></use><use xlink:href="#SvgjsG3436" transform="translate(869.4, 193.2) scale(2.3)" fill="rgba(155, 196, 217, 0.23)"></use><use xlink:href="#SvgjsG3436" transform="translate(869.4, 289.79999999999995) scale(2.3)" fill="rgba(155, 196, 217, 0.23)"></use><use xlink:href="#SvgjsG3435" transform="translate(869.4, 386.4) scale(2.3)" fill="rgba(155, 196, 217, 0.23)"></use><use xlink:href="#SvgjsG3437" transform="translate(869.4, 483) scale(2.3)" fill="rgba(155, 196, 217, 0.23)"></use></g></defs></svg>