<svg xmlns="http://www.w3.org/2000/svg" version="1.1" xmlns:xlink="http://www.w3.org/1999/xlink" xmlns:svgjs="http://svgjs.dev/svgjs" width="1440" height="560" preserveAspectRatio="none" viewBox="0 0 1440 560"><g mask="url(&quot;#SvgjsMask1015&quot;)" fill="none"><path d="M122.05 586.23L242.43 655.73L242.43 794.73L122.05 864.23L1.67 794.73L1.67 655.73zM603.57 169.23L723.96 238.73L723.96 377.73L603.57 447.23L483.19 377.73L483.19 238.73z" stroke="rgba(167, 209, 230, 0.36)" stroke-width="2"></path><path d="M155.05 524.72L265.91 588.72L265.91 716.72L155.05 780.72L44.2 716.72L44.2 588.72zM487.62 332.72L598.47 396.72L598.47 524.72L487.62 588.72L376.76 524.72L376.76 396.72zM820.18 524.72L931.04 588.72L931.04 716.72L820.18 780.72L709.33 716.72L709.33 588.72zM1152.74 -51.28L1263.6 12.72L1263.6 140.72L1152.74 204.72L1041.89 140.72L1041.89 12.72zM1263.6 140.72L1374.45 204.72L1374.45 332.72L1263.6 396.72L1152.74 332.72L1152.74 204.72zM1485.31 140.72L1596.16 204.72L1596.16 332.72L1485.31 396.72L1374.45 332.72L1374.45 204.72zM1374.45 332.72L1485.31 396.72L1485.31 524.72L1374.45 588.72L1263.6 524.72L1263.6 396.72z" stroke="rgba(167, 209, 230, 0.35)" stroke-width="2"></path></g><defs><mask id="SvgjsMask1015"><rect width="1440" height="560" fill="#ffffff"></rect></mask></defs></svg>