<svg id="visual" viewBox="0 0 1200 700" width="1200" height="700" xmlns="http://www.w3.org/2000/svg" xmlns:xlink="http://www.w3.org/1999/xlink" version="1.1"><path d="M0 594L25 588.2C50 582.3 100 570.7 150 569.5C200 568.3 250 577.7 300 583.5C350 589.3 400 591.7 450 590.7C500 589.7 550 585.3 600 573.2C650 561 700 541 750 541.7C800 542.3 850 563.7 900 575C950 586.3 1000 587.7 1050 579.8C1100 572 1150 555 1175 546.5L1200 538L1200 701L1175 701C1150 701 1100 701 1050 701C1000 701 950 701 900 701C850 701 800 701 750 701C700 701 650 701 600 701C550 701 500 701 450 701C400 701 350 701 300 701C250 701 200 701 150 701C100 701 50 701 25 701L0 701Z" fill="#a7d1e6"></path><path d="M0 583L25 586.3C50 589.7 100 596.3 150 598.2C200 600 250 597 300 600.2C350 603.3 400 612.7 450 610.2C500 607.7 550 593.3 600 587.7C650 582 700 585 750 589.7C800 594.3 850 600.7 900 606.8C950 613 1000 619 1050 622.3C1100 625.7 1150 626.3 1175 626.7L1200 627L1200 701L1175 701C1150 701 1100 701 1050 701C1000 701 950 701 900 701C850 701 800 701 750 701C700 701 650 701 600 701C550 701 500 701 450 701C400 701 350 701 300 701C250 701 200 701 150 701C100 701 50 701 25 701L0 701Z" fill="#f7d1db"></path></svg>