<svg xmlns="http://www.w3.org/2000/svg" version="1.1" xmlns:xlink="http://www.w3.org/1999/xlink" xmlns:svgjs="http://svgjs.dev/svgjs" width="1440" height="700" preserveAspectRatio="none" viewBox="0 0 1440 700"><g mask="url(&quot;#SvgjsMask1008&quot;)" fill="none"><rect width="1440" height="700" x="0" y="0" fill="rgba(181, 213, 226, 0.39)"></rect><path d="M0,603.832C119.976,618.129,249.226,611.278,350.22,544.953C450.878,478.849,518.777,365.77,542.329,247.673C563.838,139.821,502.969,37.728,472.448,-67.928C446.429,-158.001,420.401,-243.409,376.535,-326.27C320.699,-431.74,295.79,-583.784,181.383,-617.733C67.048,-651.661,-36.204,-536.954,-140.885,-479.809C-223.939,-434.47,-294.007,-378.131,-367.257,-318.23C-456.897,-244.925,-587.597,-200.481,-618.816,-88.972C-650.147,22.937,-580.974,138.098,-523.251,238.961C-469.317,333.203,-389.463,405.316,-300.395,467.424C-208.324,531.626,-111.456,590.551,0,603.832" fill="rgba(166, 205, 220, 0.39)"></path><path d="M1440 1120.394C1522.892 1133.417 1611.335 1121.763 1682.968 1078.066 1755.336 1033.921 1822.815 963.9970000000001 1834.108 879.983 1845.088 798.295 1769.012 733.915 1739.577 656.927 1718.0149999999999 600.529 1722.372 535.174 1684.347 488.272 1645.742 440.655 1585.984 419.543 1528.936 397.111 1466.762 372.663 1402.959 337.164 1337.8220000000001 352.013 1271.659 367.096 1227.433 426.042 1181.782 476.253 1135.094 527.605 1078.209 577.8820000000001 1069.829 646.777 1061.492 715.322 1108.176 775.637 1137.78 838.019 1166.923 899.4300000000001 1191.925 962.318 1241.594 1008.725 1298.193 1061.608 1363.479 1108.372 1440 1120.394" fill="rgba(196, 221, 232, 0.39)"></path></g><defs><mask id="SvgjsMask1008"><rect width="1440" height="700" fill="#ffffff"></rect></mask></defs></svg>