<svg xmlns="http://www.w3.org/2000/svg" version="1.1" xmlns:xlink="http://www.w3.org/1999/xlink" xmlns:svgjs="http://svgjs.dev/svgjs" width="1440" height="560" preserveAspectRatio="none" viewBox="0 0 1440 560"><g mask="url(&quot;#SvgjsMask1007&quot;)" fill="none"><path d="M117.19 -137.32L237.57 -67.82L237.57 71.18L117.19 140.68L-3.19 71.18L-3.19 -67.82zM478.33 71.18L598.71 140.68L598.71 279.68L478.33 349.18L357.95 279.68L357.95 140.68zM1321 279.68L1441.38 349.18L1441.38 488.18L1321 557.68L1200.62 488.18L1200.62 349.18z" stroke="rgba(167, 209, 230, 0.18)" stroke-width="2"></path><path d="M220.73 476.63L331.59 540.63L331.59 668.63L220.73 732.63L109.88 668.63L109.88 540.63zM331.59 -99.37L442.44 -35.37L442.44 92.63L331.59 156.63L220.73 92.63L220.73 -35.37zM442.44 92.63L553.3 156.63L553.3 284.63L442.44 348.63L331.59 284.63L331.59 156.63zM331.59 284.63L442.44 348.63L442.44 476.63L331.59 540.63L220.73 476.63L220.73 348.63zM553.3 284.63L664.15 348.63L664.15 476.63L553.3 540.63L442.44 476.63L442.44 348.63zM664.15 476.63L775.01 540.63L775.01 668.63L664.15 732.63L553.3 668.63L553.3 540.63zM885.86 476.63L996.72 540.63L996.72 668.63L885.86 732.63L775.01 668.63L775.01 540.63zM1550.99 92.63L1661.84 156.63L1661.84 284.63L1550.99 348.63L1440.13 284.63L1440.13 156.63z" stroke="rgba(247, 209, 219, 0.19)" stroke-width="2"></path></g><defs><mask id="SvgjsMask1007"><rect width="1440" height="560" fill="#ffffff"></rect></mask></defs></svg>